<svg xmlns="http://www.w3.org/2000/svg" width="129.761" height="120.728" viewBox="0 0 129.761 120.728">
  <g id="Digital_Repositories" transform="translate(-35.109 -39.652)">
    <path id="Path_9" data-name="Path 9" d="M111.13,136.16v4.14c2.84,1.91,5.73,3.32,7.89,5.46,3.37,3.32,3.82,7.69,2.91,12.23-.35,1.75-1.37,2.4-3.11,2.39H69.39c-2.44,0-3.65-1.35-3.55-4.47.2-6.22,1.21-11.81,11.22-14.81v-4.92H74.35c-9.48,0-19-.18-28.42.07-6.57.17-10.68-4.26-10.73-10.62-.14-18.19-.1-36.38,0-54.57,0-6.4,4.5-10.88,10.88-10.76,15.65.27,31.3.09,47,.09h3V69H93.14c-15.24,0-30.48.06-45.72,0-2.52,0-3.2.76-3.19,3.23q.14,26.17,0,52.35c0,2.41.74,3.07,3.1,3.06q46.71-.09,93.42,0c2.51,0,3.25-.73,3.21-3.22-.15-7.56-.06-15.12-.06-22.84h8.87a4.5,4.5,0,0,1,.24,1c0,7.74.11,15.48,0,23.21a10.36,10.36,0,0,1-10.72,10.47C132,135.92,121.71,136.16,111.13,136.16ZM73.18,153.58H115c.21-2.88-1.92-5.52-4.64-5.53q-16.28-.11-32.57,0C75.08,148.06,73,150.71,73.18,153.58Z" fill="#fff"/>
    <path id="Path_10" data-name="Path 10" d="M124.85,61.35h26.08c4.62,0,6.22,1.72,6.11,6.09-.2,7.56,0,15.13-.06,22.7,0,3.34-1.5,5-4.86,5q-22.47.09-44.94,0c-3.1,0-4.77-1.77-4.78-4.93q-.08-16.17,0-32.32c0-3.27,1.35-4.44,4.66-4.44h13.83c3,0,3.93,1,4,3.94C124.86,58.61,124.85,59.82,124.85,61.35Z" fill="#fff"/>
    <path id="Path_11" data-name="Path 11" d="M161.16,59.45c-2.64-3.25-5.95-4-9.76-3.84-6,.18-12,0-18,.07-1.58,0-3.12-.49-3.69-2.23-1.3-4.05-4.29-6.18-8.68-6.19h-9.38a7.9,7.9,0,0,1-1-.22,28.33,28.33,0,0,1,1.12-5.67,3.69,3.69,0,0,1,2.85-1.65q23.7-.15,47.4,0a2.87,2.87,0,0,1,2.78,3.5c-1,5.22-2.13,10.41-3.23,15.61C161.57,58.9,161.43,59,161.16,59.45Z" fill="#fff"/>
  </g>
</svg>
