<svg xmlns="http://www.w3.org/2000/svg" width="159.557" height="134.615" viewBox="0 0 159.557 134.615">
  <g id="Virtual_Museum" transform="translate(-18.109 -38.604)">
    <path id="Path_1" data-name="Path 1" d="M58.93,60c13.18-.1,22.57,8.67,22.62,21.1,0,12.07-9.37,22.05-21.09,22.34C49,103.72,38.12,93.54,38,82.5,37.91,69.13,46.32,60.07,58.93,60ZM73.36,81.9C73.24,72,67.77,66.35,58.5,66.65c-7.41.24-13.53,7.4-13.32,15.57C45.4,90.86,50.78,96,59.46,96c9.19-.13,14.02-5,13.9-14.11Z" fill="#fdfdfd"/>
    <path id="Path_2" data-name="Path 2" d="M149.41,73.52c3.66,5.23,0,10.4.26,14.28a2.67,2.67,0,0,0,1.5,2.75,4.25,4.25,0,0,0,5.11-1.7,24.36,24.36,0,0,0,2-8.79c.5-8-4.72-15.37-12.16-18.41C137.81,58.27,130,59.11,122.87,64c-7.48,5.09-9.59,12.79-8.17,21.45.49,3,.72,7.45,5.34,6.44,5.34-1.18,1.24-8.56,1.33-12.07a11.36,11.36,0,0,1,5.53-9.49C133.57,66.12,144.87,67,149.41,73.52Z" fill="#f4f4f4"/>
    <path id="Path_3" data-name="Path 3" d="M71.48,83.1a11.28,11.28,0,0,1-7.81,9.37c-2.05.75-5.13,1.65-6.2-1.59-.77-2.32.55-4.1,3.07-4.77s3.73-1.45,4.36-4c.4-1.59,1.9-4.25,4.26-3.08C71.12,79.67,71.8,80.63,71.48,83.1Z" fill="#53bfc0"/>
    <path id="Path_4" data-name="Path 4" d="M71.48,83.1a11.28,11.28,0,0,1-7.81,9.37c-2.05.75-5.13,1.65-6.2-1.59-.77-2.32.55-4.1,3.07-4.77s3.73-1.45,4.36-4c.4-1.59,1.9-4.25,4.26-3.08C71.12,79.67,71.8,80.63,71.48,83.1Z" fill="#53bfc0"/>
    <path id="Path_5" data-name="Path 5" d="M71.48,83.1a11.28,11.28,0,0,1-7.81,9.37c-2.05.75-5.13,1.65-6.2-1.59-.77-2.32.55-4.1,3.07-4.77s3.73-1.45,4.36-4c.4-1.59,1.9-4.25,4.26-3.08C71.12,79.67,71.8,80.63,71.48,83.1Z" fill="#fff"/>
    <path id="Path_6" data-name="Path 6" d="M147.27,83.11c-.41,3-1.57,5.42-4,6.59a3.25,3.25,0,0,1-1.77.49c-3.12-.48-4.08-2.52-3-4,.83-1.16,2.14-1.63,2.62-3.47.34-1.56,1.42-4.81,3.79-3.66C146.93,79.65,147.61,80.6,147.27,83.11Z" fill="#fff"/>
    <path id="Path_7" data-name="Path 7" d="M177.54,54.07c-.16-10.47-5.31-15.39-15.66-15.43-21.19-.08-42.38,0-63.58,0-21.74,0-43.47-.08-65.21,0-10,.06-15.42,6.26-14.74,16,.24,3.51,0,7,0,10.56,0,14.36-.58,28.74.06,43.06.57,12.66,5,16.35,17.34,16.46,11.41.1,22.84-.35,34.23.18,9.49.44,16.39-2.5,20.09-11.55.9-2.21,4.82-4.41,1.06-6.75-2.85-1.79-4.23,1.58-5.46,3.46-3.31,5.06-7.31,8.54-13.82,8.42-13-.23-26.06-.11-39.08-.43-5.31-.13-8.61-2.92-8.55-8.71.21-18.16.47-36.32.52-54.48,0-7.41,3.61-9.77,10.71-9.73,41.57.19,83.14.08,124.71.11,9.06,0,10.74,1.73,10.79,11.09.09,14.64-.06,29.27.1,43.91,0,2.56-1.52,6.86,3.25,6.68,3.57-.13,3.27-3.68,3.28-6.38C177.61,85,177.78,69.55,177.54,54.07Z" fill="#fff7f7"/>
    <path id="Path_8" data-name="Path 8" d="M170.51,150.17a36.69,36.69,0,0,0,3.87-16.59,37.41,37.41,0,0,0-12.85-28.35l2.72-8.37a2.48,2.48,0,0,0-1.57-2.8,2.72,2.72,0,0,0-3.25.22l-6.53,5.17A37.86,37.86,0,0,0,108.56,108L99,104.62a2.09,2.09,0,0,0-2.36.58,2.47,2.47,0,0,0-.7,2.61l6.94,8.3a36.87,36.87,0,0,0-4.29,17.47,37.46,37.46,0,0,0,11.77,27.34l-3.27,8.43s-.56,2.47,1.53,3.47a4.84,4.84,0,0,0,3.85,0l7.14-5.37a37.77,37.77,0,0,0,45.56-9.12l8.16,3.06a2.4,2.4,0,0,0,3.25-.83c1.1-1.51-.26-3.72-.26-3.72Zm-11.08-38.35a30.13,30.13,0,0,1,6.66,10.81h-10.2ZM136.51,102a29.94,29.94,0,0,1,10.81,2l-7.89,6.33L136.3,102Zm-9.45,1.43-1,10.68-10.88-3.74a31.2,31.2,0,0,1,11.88-6.98Zm-22.24,30.19a31.17,31.17,0,0,1,2.45-12.1l6.59,7.91.28,1.34-9.25,4.21a8.41,8.41,0,0,1-.07-1.4Zm8,20.88a29.25,29.25,0,0,1-6.19-10.61l10.06.68Zm23.73,10.74a30.41,30.41,0,0,1-11.15-2.11l8.5-6.39,3.94,8.44a9.291,9.291,0,0,1-1.33.02Zm9.93-1.63.06-12.31,12.34,4.7a30.58,30.58,0,0,1-12.44,7.57Zm-4-20s-1-.49-1.39-.35a1.06,1.06,0,0,0-.64.95l-1.22,8.64-4.41-6.18-15,10.73,4.83-17.86-9-2s10.37-4.46,8.9-6.74c.48-2-13.26-14.07-13.26-14.07s12.05,4.94,17.64,6a3.715,3.715,0,0,0,2.39,0c.39-.25.53-.74.69-1.75.55-3.47.94-10.7.94-10.7a85.148,85.148,0,0,0,4.19,8.08c.9,1.44,1.27,2.46,2.23,2.62s1.8-.85,3.25-1.84c4.56-3.09,10.63-9.75,10.63-9.75l-5.78,17.07a1.53,1.53,0,0,0,.12,1.46,1.64,1.64,0,0,0,1.33.77l7.6.7-8,3.33a1.35,1.35,0,0,0-.81,1.28,4.86,4.86,0,0,0,.85,1.44l12.13,15.16ZM166,144.87l-8.09-9.38,10.2-3.27a8.471,8.471,0,0,1,.07,1.36A29.75,29.75,0,0,1,166,144.87Z" fill="#fdf7f7"/>
  </g>
</svg>
