<svg xmlns="http://www.w3.org/2000/svg" width="134.99" height="159.62" viewBox="0 0 134.99 159.62">
  <g id="Centralized_Database" transform="translate(-32.5 -20.19)">
    <path id="Path_1" data-name="Path 1" d="M71.31,146.71c0,2.79.11,5.58.13,8.37,0,1.64.8,2.12,2.41,2.11,13.87-.05,27.75,0,41.62,0,2.23,0,2.63-.45,2.68-1.87.1-2.76.07-5.24.11-7.79,0-2.08-.5-2.51-2.61-2.51H73.3C72,145,71.31,145.43,71.31,146.71Zm12.36,3.23c3.48-.07,7-.06,10.44,0,.4,0,1.17.13,1.17.77s-.84.79-1.28.81c-1.74.1-3.48,0-5.22,0h0c-1.68,0-3.37.06-5,0-.46,0-1.34,0-1.34-.76S83.24,150,83.67,149.94Zm-4.94-.62a1.09,1.09,0,1,1-1,1.4,1,1,0,0,1,1-1.4Z" fill="#fff"/>
    <path id="Path_2" data-name="Path 2" d="M83,71.48h21.07c4.26,0,6.17-1.93,6.17-6.18V26.1c0-3.93-2-5.9-5.89-5.91H82.79c-4,0-5.95,2-5.95,6V65.26C76.8,69.53,78.7,71.47,83,71.48Zm10.17-1.67a1.38,1.38,0,0,1-1.3-1.39,1.5,1.5,0,1,1,2.99.14c-.07,1.25-1.15,1.3-1.73,1.25ZM90.8,22.46h5.79v.62H90.82C90.82,22.83,90.8,22.65,90.8,22.46ZM79.29,25.05c.15-.23.56-.17.83-.17h26.81c.38,0,.62,0,.83.41a1.93,1.93,0,0,1,.12,1v38.3c0,1.08-.22,1.56-1.43,1.55H80.2a1.23,1.23,0,0,1-1.09-1.35V25.81a1.33,1.33,0,0,1,.18-.76Z" fill="#fff"/>
    <path id="Path_3" data-name="Path 3" d="M71.53,167.82c0,1.29.67,1.67,1.88,1.66h42.35c1.12,0,1.83-.42,1.95-1.51a79.6,79.6,0,0,0,.12-8.74H71.53C71.53,162.16,71.54,165,71.53,167.82Zm11.88-4.41h9.71c.42,0,1.82-.11,1.82.64s-.65.83-1.16.83H83.97c-.62,0-1.72.07-1.72-.8,0-.56.64-.66,1.16-.67ZM78.55,163a1.17,1.17,0,0,1,1.33,1.09c0,1.75-2.95,1.18-2.28-.43a1.09,1.09,0,0,1,.95-.66Z" fill="#fff"/>
    <path id="Path_4" data-name="Path 4" d="M163.93,30.53H127.84a3.42,3.42,0,0,0-3.63,3.69c0,6.63.08,27.54.23,30.43.07,1.24,1.31,1.83,2.6,1.84h36.77c2.76,0,3.67-.88,3.68-3.63V34.09C167.5,31.49,166.51,30.53,163.93,30.53Zm.73,30.64h-2.27c-10.06,0-34.2,0-35.3-.28-.14-.85-.17-18.7-.17-25.73V32.84h37.74Z" fill="#fff"/>
    <path id="Path_5" data-name="Path 5" d="M111.21,136.69c-.23-.31-.92-.4-1.4-.4H80.53a2.27,2.27,0,0,0-1.45.34c-2.16,2.3-4.24,4.66-6.57,7.25h43.84C114.52,141.27,112.91,138.94,111.21,136.69Z" fill="#fff"/>
    <path id="Path_6" data-name="Path 6" d="M51.57,66V36.9c0-2.62-1.25-3.85-3.81-3.85H36.26c-2.7,0-3.76,1.09-3.76,3.83v29.1c0,2.59,1,3.6,3.56,3.61H47.9C50.33,69.55,51.54,68.39,51.57,66ZM33.5,64.26V37.56c0-.79,0-1.5,1.13-1.49H50.14V64.26Z" fill="#fff"/>
    <path id="Path_7" data-name="Path 7" d="M116.81,171.87c-2.06,0-36.8.41-44,.41-.49,0-1-.71-1.45-.71v6c0,1.63.75,2.25,2.49,2.24,11.14-.08,40.4-.14,42.86-.13a1.75,1.75,0,0,0,1-.52c.51-.45.42-1.35.44-1.75.07-2.09,0-4.18,0-6.45Zm-38.3,4.45a1.1,1.1,0,1,1,1.03-.52,1,1,0,0,1-1.03.52Zm15.32-.61a5.245,5.245,0,0,1-.61,0c-3.27,0-6.56.12-9.83,0-.39,0-1.14-.23-1.15-.68,0-.78,1.33-.77,1.81-.78h9.4c.44,0,1.25,0,1.46.51s-.46.88-1.08.95Z" fill="#fff"/>
    <path id="Path_8" data-name="Path 8" d="M144,74.34s-.21,22-.21,31.58v2H112.44c-.29-2.68-.32-2.71-2.9-2.71H97.08v-32H92.45v32H80c-3,0-3.19.44-3.19,3.06-2.74,0-27-.16-30.75-.21-1.34,0-1.35-.17-1.39-1.39V73.29H40.28v39.2c.6,0,29.35,0,34.76.08h1.79s-.37,3.81,1.88,3.81H92.65V133.6h4.47V116.38H98.9c3.83.08,7.67,0,11.51,0,1.38,0,2.13-.55,2-2-.1-.85-1.54-1.49-1.13-1.75a15.309,15.309,0,0,1,3-.09c10.58,0,33.32,0,34.05-.08,0-.5-.07-36.33.08-38.13Z" fill="#fff"/>
  </g>
</svg>
