<svg xmlns="http://www.w3.org/2000/svg" width="95.856" height="140.906" viewBox="0 0 95.856 140.906">
  <g id="_3D_2D_Digitisation" data-name="3D_2D_Digitisation" transform="translate(-52.064 -29.55)">
    <path id="Path_1" data-name="Path 1" d="M100.14,96.47c-7,13.13-13.89,25.9-20.72,38.69-5.37,10.07-10.61,20.2-16.13,30.19a12,12,0,0,1-4.74,4.73c-1.83.93-4,.07-5.42-1.85a5.47,5.47,0,0,1-.28-6.07c2.85-5.56,5.8-11.07,8.73-16.58,4.26-8,8.51-16,12.82-24,5.34-9.86,10.75-19.69,16.25-29.77-7.45-2-5.1-7.89-5.56-13h29.4c.65,10,.9,10.19-4.71,13.14,2.19,4,4.44,7.87,6.57,11.85,3.16,5.9,6.19,11.86,9.35,17.76,7.08,13.18,14.27,26.29,21.23,39.53a9.17,9.17,0,0,1,.8,6c-.33,1.29-2.38,2.57-3.9,3a4.46,4.46,0,0,1-5.44-2.38c-2.63-5-5.25-9.94-7.91-14.89q-10.86-20.24-21.75-40.46C105.91,107.16,103.08,101.91,100.14,96.47Z" fill="#fff"/>
    <path id="Path_2" data-name="Path 2" d="M75.94,38.11V33.86c.1-3,1.47-4.31,4.43-4.31H120c3,0,4.36,1.28,4.46,4.28v3.85c.41.21.56.37.71.36,7.15-.45,9.61,3.5,9.05,9.73-.22,2.4,0,4.84,0,7.27,0,5.4-2.42,7.84-7.83,7.93a15.648,15.648,0,0,0-1.89.09v4c-.11,3.42-1.19,4.49-4.57,4.49H80.82c-3.75,0-4.8-1-4.87-4.73v-3.9h-3.2a6.67,6.67,0,0,1-6.5-6.54c-.07-3.59,0-7.19,0-10.78q0-7.32,7.37-7.52C74.22,38.1,74.84,38.11,75.94,38.11ZM100,62.45c7,0,12.07-4.9,12.09-11.82A11.67,11.67,0,0,0,100.2,38.54,12,12,0,0,0,88,50.56C88.11,56.57,92.83,62.67,100,62.45Z" fill="#fff"/>
  </g>
</svg>


