<svg xmlns="http://www.w3.org/2000/svg" width="140.001" height="154.946" viewBox="0 0 140.001 154.946">
  <g id="Tools_for_learning" transform="translate(-29.999 -22.525)">
    <path id="Path_1" data-name="Path 1" d="M63.21,113H78.93a12.53,12.53,0,0,1,12.38,12.1c.21,15.8.08,31.59.06,47.39a3.63,3.63,0,0,1-3.93,4q-8.76.06-17.53,0c-2.11,0-3.47-1.52-3.47-3.79V137.61c-1,0-1.85-.12-2.72-.12-6,0-12-.17-18,0-7.19.24-14.13-7.69-13.95-13.92.33-11.67.07-23.36.1-35,0-6.8,5.54-12.67,12.2-14,7.41-1.47,13.29,1.19,17.14,7.63a15.13,15.13,0,0,1,1.94,6.9c.24,7,.09,14,.09,21Z" fill="#faf7f7"/>
    <path id="Path_2" data-name="Path 2" d="M170,117.58H100.56c0-5-.12-9.78,0-14.6.09-2.54,1.64-3.77,4.19-3.77h61c2.81,0,4.2,1.4,4.22,4.2C170,108.07,170,112.74,170,117.58Z" fill="#fff"/>
    <path id="Path_3" data-name="Path 3" d="M135.79,58.65c1.55-.56,2.67-1.25,3.83-1.34a4.55,4.55,0,0,1,4.71,4.49c-.13,8.88,0,17.77-.07,26.65,0,2.63-1.44,4-4.1,4.06H122.63c-3.19,0-4.73-1.37-4.78-4.23a4.57,4.57,0,0,1,4.68-4.86c4.1-.1,8.2,0,12.45,0V61.82l-.33-.14c-1.4,3.44-2.85,6.86-4.19,10.32-1.13,2.88-3.75,4.29-6.44,3.11a4.7,4.7,0,0,1-2.28-6.17c3.73-9.13,7.29-18.33,10.92-27.51,2-5,4-10.07,5.94-15.12,1.14-3,3.47-4.4,6.05-3.53s3.78,3.56,2.59,6.65c-3.63,9.35-7.37,18.66-11.06,28C136.07,57.69,136,58,135.79,58.65Z" fill="#fff"/>
    <path id="Path_4" data-name="Path 4" d="M47.39,70.29C36.31,70.2,29.89,61.83,30,52.78c.14-10.42,7.29-17.6,17.57-17.72a17.18,17.18,0,0,1,17.5,17.53C65.07,62.41,58,70.4,47.39,70.29Z" fill="#fafafa"/>
    <path id="Path_5" data-name="Path 5" d="M100.54,126h9c0,.92.11,1.72.11,2.52v43.62c0,3.39-1.71,5.35-4.62,5.32s-4.5-2-4.5-5.19V128.4Z" fill="#fff"/>
    <path id="Path_6" data-name="Path 6" d="M161,126h9v46.13c0,3.59-1.42,5.29-4.46,5.34-2.75.05-4.42-1.79-4.66-5.14a4,4,0,0,1,0-.49V127.22A6.452,6.452,0,0,1,161,126Z" fill="#fff"/>
  </g>
</svg>
